#Comment line ignore any data following # character 
#Hierarchical Translation and Rotation (.htr) file 
[Header]	
#Header keywords are followed by a single value 
FileType HTR		#Single word string
DataType HTRS		#Translation followed by rotation and scale data
FileVersion 1		#integer
NumSegments 84		#integer
NumFrames 2		#integer
DataFrameRate 30		#integer, data frame rate in this file
EulerRotationOrder ZYX
CalibrationUnits mm
RotationUnits Degrees
GlobalAxisofGravity Y
BoneLengthAxis Y
ScaleFactor 1.00
[SegmentNames&Hierarchy]
#CHILD	PARENT
MASTER GLOBAL
root MASTER
chest root
L_mid_tent01 root
R_mid_tent01 root
spine01 root
Bip01_Neck chest
L_humerus chest
R_humerus chest
weapon_bone chest
Bip01_Head Bip01_Neck
eye_left_bone Bip01_Head
eye_right_bone Bip01_Head
L_forearm L_humerus
L_front_hand L_forearm
L_weapon_bone L_forearm
L_front_hand01_01 L_front_hand
L_front_hand02_01 L_front_hand
L_front_hand03_01 L_front_hand
L_front_hand01_02 L_front_hand01_01
L_front_hand02_02 L_front_hand02_01
L_front_hand03_02 L_front_hand03_01
R_forearm R_humerus
R_front_hand R_forearm
R_weapon_bone R_forearm
R_front_hand01_01 R_front_hand
R_front_hand02_01 R_front_hand
R_front_hand03_01 R_front_hand
R_front_hand01_02 R_front_hand01_01
R_front_hand02_02 R_front_hand02_01
R_front_hand03_02 R_front_hand03_01
null_rope01_connect L_mid_tent01
Rope1_Seg01 null_rope01_connect
Rope1_Seg02 Rope1_Seg01
Rope1_Seg03 Rope1_Seg02
Rope1_Seg04 Rope1_Seg03
Rope1_Seg05 Rope1_Seg04
Rope1_Seg06 Rope1_Seg05
Rope1_Seg07 Rope1_Seg06
Rope1_Seg09 Rope1_Seg07
L_mid_hand01 Rope1_Seg09
L_mid_hand02 Rope1_Seg09
L_mid_hand03 Rope1_Seg09
null_rope02_connect R_mid_tent01
Rope2_Seg01 null_rope02_connect
Rope2_Seg02 Rope2_Seg01
Rope2_Seg03 Rope2_Seg02
Rope2_Seg04 Rope2_Seg03
Rope2_Seg05 Rope2_Seg04
Rope2_Seg06 Rope2_Seg05
Rope2_Seg07 Rope2_Seg06
Rope2_Seg09 Rope2_Seg07
R_mid_hand01 Rope2_Seg09
R_mid_hand02 Rope2_Seg09
R_mid_hand03 Rope2_Seg09
spine02 spine01
spine03 spine02
pelvis spine03
null_rope03_connect pelvis
null_rope04_connect pelvis
Rope3_Seg01 null_rope03_connect
Rope3_Seg02 Rope3_Seg01
Rope3_Seg03 Rope3_Seg02
Rope3_Seg04 Rope3_Seg03
Rope3_Seg05 Rope3_Seg04
Rope3_Seg06 Rope3_Seg05
Rope3_Seg07 Rope3_Seg06
Rope3_Seg08 Rope3_Seg07
Rope3_Seg09 Rope3_Seg08
R_rear_hand01 Rope3_Seg09
R_rear_hand02 Rope3_Seg09
R_rear_hand03 Rope3_Seg09
Rope4_Seg01 null_rope04_connect
Rope4_Seg02 Rope4_Seg01
Rope4_Seg03 Rope4_Seg02
Rope4_Seg04 Rope4_Seg03
Rope4_Seg05 Rope4_Seg04
Rope4_Seg06 Rope4_Seg05
Rope4_Seg07 Rope4_Seg06
Rope4_Seg08 Rope4_Seg07
Rope4_Seg09 Rope4_Seg08
L_rear_hand01 Rope4_Seg09
L_rear_hand02 Rope4_Seg09
L_rear_hand03 Rope4_Seg09
[BasePosition]
#SegmentName Tx, Ty, Tz, Rx, Ry, Rz, BoneLength
MASTER 0.000000 0.000000 0.000000 -90.000000 0.000000 0.000000 10.000000 
root 0.000000 0.000000 0.000000 0.000000 0.000000 0.000000 10.000000 
chest 0.000000 0.000000 0.000000 0.000000 0.000000 0.000000 10.000000 
L_mid_tent01 0.000000 0.000000 0.000000 0.000000 0.000000 0.000000 10.000000 
R_mid_tent01 0.000000 0.000000 0.000000 0.000000 0.000000 0.000000 10.000000 
spine01 0.000000 0.000000 0.000000 0.000000 0.000000 0.000000 10.000000 
Bip01_Neck 0.000000 0.000000 0.000000 0.000000 0.000000 0.000000 10.000000 
L_humerus 0.000000 0.000000 0.000000 0.000000 0.000000 0.000000 10.000000 
R_humerus 0.000000 0.000000 0.000000 0.000000 0.000000 0.000000 10.000000 
weapon_bone 0.000000 0.000000 0.000000 0.000000 0.000000 0.000000 10.000000 
Bip01_Head 0.000000 0.000000 0.000000 0.000000 0.000000 0.000000 10.000000 
eye_left_bone 0.000000 0.000000 0.000000 0.000000 0.000000 0.000000 10.000000 
eye_right_bone 0.000000 0.000000 0.000000 0.000000 0.000000 0.000000 10.000000 
L_forearm 0.000000 0.000000 0.000000 0.000000 0.000000 0.000000 10.000000 
L_front_hand 0.000000 0.000000 0.000000 0.000000 0.000000 0.000000 10.000000 
L_weapon_bone 0.000000 0.000000 0.000000 0.000000 0.000000 0.000000 10.000000 
L_front_hand01_01 0.000000 0.000000 0.000000 0.000000 0.000000 0.000000 10.000000 
L_front_hand02_01 0.000000 0.000000 0.000000 0.000000 0.000000 0.000000 10.000000 
L_front_hand03_01 0.000000 0.000000 0.000000 0.000000 0.000000 0.000000 10.000000 
L_front_hand01_02 0.000000 0.000000 0.000000 0.000000 0.000000 0.000000 10.000000 
L_front_hand02_02 0.000000 0.000000 0.000000 0.000000 0.000000 0.000000 10.000000 
L_front_hand03_02 0.000000 0.000000 0.000000 0.000000 0.000000 0.000000 10.000000 
R_forearm 0.000000 0.000000 0.000000 0.000000 0.000000 0.000000 10.000000 
R_front_hand 0.000000 0.000000 0.000000 0.000000 0.000000 0.000000 10.000000 
R_weapon_bone 0.000000 0.000000 0.000000 0.000000 0.000000 0.000000 10.000000 
R_front_hand01_01 0.000000 0.000000 0.000000 0.000000 0.000000 0.000000 10.000000 
R_front_hand02_01 0.000000 0.000000 0.000000 0.000000 0.000000 0.000000 10.000000 
R_front_hand03_01 0.000000 0.000000 0.000000 0.000000 0.000000 0.000000 10.000000 
R_front_hand01_02 0.000000 0.000000 0.000000 0.000000 0.000000 0.000000 10.000000 
R_front_hand02_02 0.000000 0.000000 0.000000 0.000000 0.000000 0.000000 10.000000 
R_front_hand03_02 0.000000 0.000000 0.000000 0.000000 0.000000 0.000000 10.000000 
null_rope01_connect 0.000000 0.000000 0.000000 0.000000 0.000000 0.000000 10.000000 
Rope1_Seg01 0.000000 0.000000 0.000000 0.000000 0.000000 0.000000 10.000000 
Rope1_Seg02 0.000000 0.000000 0.000000 0.000000 0.000000 0.000000 10.000000 
Rope1_Seg03 0.000000 0.000000 0.000000 0.000000 0.000000 0.000000 10.000000 
Rope1_Seg04 0.000000 0.000000 0.000000 0.000000 0.000000 0.000000 10.000000 
Rope1_Seg05 0.000000 0.000000 0.000000 0.000000 0.000000 0.000000 10.000000 
Rope1_Seg06 0.000000 0.000000 0.000000 0.000000 0.000000 0.000000 10.000000 
Rope1_Seg07 0.000000 0.000000 0.000000 0.000000 0.000000 0.000000 10.000000 
Rope1_Seg09 0.000000 0.000000 0.000000 0.000000 0.000000 0.000000 10.000000 
L_mid_hand01 0.000000 0.000000 0.000000 0.000000 0.000000 0.000000 10.000000 
L_mid_hand02 0.000000 0.000000 0.000000 0.000000 0.000000 0.000000 10.000000 
L_mid_hand03 0.000000 0.000000 0.000000 0.000000 0.000000 0.000000 10.000000 
null_rope02_connect 0.000000 0.000000 0.000000 0.000000 0.000000 0.000000 10.000000 
Rope2_Seg01 0.000000 0.000000 0.000000 0.000000 0.000000 0.000000 10.000000 
Rope2_Seg02 0.000000 0.000000 0.000000 0.000000 0.000000 0.000000 10.000000 
Rope2_Seg03 0.000000 0.000000 0.000000 0.000000 0.000000 0.000000 10.000000 
Rope2_Seg04 0.000000 0.000000 0.000000 0.000000 0.000000 0.000000 10.000000 
Rope2_Seg05 0.000000 0.000000 0.000000 0.000000 0.000000 0.000000 10.000000 
Rope2_Seg06 0.000000 0.000000 0.000000 0.000000 0.000000 0.000000 10.000000 
Rope2_Seg07 0.000000 0.000000 0.000000 0.000000 0.000000 0.000000 10.000000 
Rope2_Seg09 0.000000 0.000000 0.000000 0.000000 0.000000 0.000000 10.000000 
R_mid_hand01 0.000000 0.000000 0.000000 0.000000 0.000000 0.000000 10.000000 
R_mid_hand02 0.000000 0.000000 0.000000 0.000000 0.000000 0.000000 10.000000 
R_mid_hand03 0.000000 0.000000 0.000000 0.000000 0.000000 0.000000 10.000000 
spine02 0.000000 0.000000 0.000000 0.000000 0.000000 0.000000 10.000000 
spine03 0.000000 0.000000 0.000000 0.000000 0.000000 0.000000 10.000000 
pelvis 0.000000 0.000000 0.000000 0.000000 0.000000 0.000000 10.000000 
null_rope03_connect 0.000000 0.000000 0.000000 0.000000 0.000000 0.000000 10.000000 
null_rope04_connect 0.000000 0.000000 0.000000 0.000000 0.000000 0.000000 10.000000 
Rope3_Seg01 0.000000 0.000000 0.000000 0.000000 0.000000 0.000000 10.000000 
Rope3_Seg02 0.000000 0.000000 0.000000 0.000000 0.000000 0.000000 10.000000 
Rope3_Seg03 0.000000 0.000000 0.000000 0.000000 0.000000 0.000000 10.000000 
Rope3_Seg04 0.000000 0.000000 0.000000 0.000000 0.000000 0.000000 10.000000 
Rope3_Seg05 0.000000 0.000000 0.000000 0.000000 0.000000 0.000000 10.000000 
Rope3_Seg06 0.000000 0.000000 0.000000 0.000000 0.000000 0.000000 10.000000 
Rope3_Seg07 0.000000 0.000000 0.000000 0.000000 0.000000 0.000000 10.000000 
Rope3_Seg08 0.000000 0.000000 0.000000 0.000000 0.000000 0.000000 10.000000 
Rope3_Seg09 0.000000 0.000000 0.000000 0.000000 0.000000 0.000000 10.000000 
R_rear_hand01 0.000000 0.000000 0.000000 0.000000 0.000000 0.000000 10.000000 
R_rear_hand02 0.000000 0.000000 0.000000 0.000000 0.000000 0.000000 10.000000 
R_rear_hand03 0.000000 0.000000 0.000000 0.000000 0.000000 0.000000 10.000000 
Rope4_Seg01 0.000000 0.000000 0.000000 0.000000 0.000000 0.000000 10.000000 
Rope4_Seg02 0.000000 0.000000 0.000000 0.000000 0.000000 0.000000 10.000000 
Rope4_Seg03 0.000000 0.000000 0.000000 0.000000 0.000000 0.000000 10.000000 
Rope4_Seg04 0.000000 0.000000 0.000000 0.000000 0.000000 0.000000 10.000000 
Rope4_Seg05 0.000000 0.000000 0.000000 0.000000 0.000000 0.000000 10.000000 
Rope4_Seg06 0.000000 0.000000 0.000000 0.000000 0.000000 0.000000 10.000000 
Rope4_Seg07 0.000000 0.000000 0.000000 0.000000 0.000000 0.000000 10.000000 
Rope4_Seg08 0.000000 0.000000 0.000000 0.000000 0.000000 0.000000 10.000000 
Rope4_Seg09 0.000000 0.000000 0.000000 0.000000 0.000000 0.000000 10.000000 
L_rear_hand01 0.000000 0.000000 0.000000 0.000000 0.000000 0.000000 10.000000 
L_rear_hand02 0.000000 0.000000 0.000000 0.000000 0.000000 0.000000 10.000000 
L_rear_hand03 0.000000 0.000000 0.000000 0.000000 0.000000 0.000000 10.000000 
#Beginning of Data. Separated by tabs
#Fr	Tx	Ty	Tz	Rx	Ry	Rz	SF
[MASTER]
13 1633.583740 2736.134033 -1463.445435 0.001660 0.001660 0.001660 3506.664795
14 1615.254150 2961.170898 -1565.360840 0.001660 0.001660 0.001660 3718.592773
[root]
13 -15.502474 -71.377251 1370.623901 -98.995827 -24.744801 -89.312073 1372.568848
14 -16.326141 -69.170525 1463.486572 -92.524101 -26.703281 -89.805321 1465.211304
[chest]
13 -84.512650 -34.090519 0.000000 -25.032402 -5.689837 174.309433 91.129311
14 -84.512650 -34.090519 0.000000 -19.711227 -2.275190 172.857117 91.129311
[L_mid_tent01]
13 27.298944 22.179173 -249.918823 -4.570694 40.947659 58.528095 252.381775
14 27.298937 22.179165 -249.918823 -2.783829 38.427822 62.807693 252.381775
[R_mid_tent01]
13 23.228794 24.509907 226.238495 170.162506 -11.853334 60.231438 228.744751
14 23.228794 24.509907 226.238495 171.853836 -21.681715 59.750801 228.744751
[spine01]
13 -0.361383 -0.195265 0.000000 -0.000001 -0.000007 22.052340 0.410763
14 -0.361383 -0.195265 0.000000 -0.000001 -0.000007 22.052340 0.410763
[Bip01_Neck]
13 165.484543 71.581718 0.000119 176.643677 -1.657967 43.431911 180.302734
14 165.484543 71.581718 0.000119 176.643677 -1.657967 43.431911 180.302734
[L_humerus]
13 -13.983130 -135.272980 -120.471481 157.235672 67.871704 -110.952568 181.680161
14 -13.983130 -135.272980 -120.471481 156.927002 68.854576 -111.316864 181.680161
[R_humerus]
13 -13.983309 -135.273102 125.287651 -163.480667 -65.966644 -101.041374 184.909012
14 -13.983309 -135.273102 125.287651 -167.976700 -66.166504 -96.770470 184.909012
[weapon_bone]
13 235.964890 -300.705902 0.000000 0.000000 -89.951546 -128.212341 382.234833
14 235.964890 -300.705902 0.000000 0.000000 -89.951546 -128.212341 382.234833
[Bip01_Head]
13 213.435150 185.740311 11.456300 18.223379 6.152122 -43.833611 283.170044
14 213.441772 185.720886 11.705933 17.489447 5.965126 -43.835255 283.172516
[eye_left_bone]
13 -24.626970 125.451866 -64.772606 0.000000 -90.000000 -99.840431 143.318359
14 -24.626970 125.451866 -64.772606 0.000000 -90.000000 -99.840431 143.318359
[eye_right_bone]
13 -24.626970 125.451866 64.327362 0.000000 -89.965736 80.156380 143.117676
14 -24.626970 125.451866 64.327362 0.000000 -89.965736 80.156380 143.117676
[L_forearm]
13 322.776093 0.000000 -0.000119 0.000353 -0.002321 -107.285072 322.776093
14 322.776093 0.000000 -0.000119 0.000359 -0.002320 -107.607521 322.776093
[L_front_hand]
13 241.149185 -0.042021 -3.300071 -105.490540 -1.835781 -27.423635 241.171753
14 241.149185 -0.042021 -3.300071 -105.490540 -1.835781 -27.423635 241.171753
[L_weapon_bone]
13 156.183838 0.000000 0.000000 0.000014 0.000007 0.000001 156.183838
14 156.183838 0.000000 0.000000 0.000014 0.000007 0.000001 156.183838
[L_front_hand01_01]
13 86.095154 20.947098 -0.655860 -0.366594 -0.477154 75.385574 88.609184
14 86.095154 20.947098 -0.655860 -0.366594 -0.477154 75.385574 88.609184
[L_front_hand02_01]
13 86.935165 -11.437475 24.513514 154.399796 -59.883835 -61.369587 91.046425
14 86.935165 -11.437475 24.513514 154.399796 -59.883835 -61.369587 91.046425
[L_front_hand03_01]
13 86.637497 -14.123976 -20.424902 -153.913879 58.118130 -62.702892 90.126129
14 86.637497 -14.123976 -20.424902 -153.913849 58.118122 -62.702866 90.126129
[L_front_hand01_02]
13 71.020905 -0.000179 0.000030 0.000334 -0.002323 -106.379684 71.020905
14 71.020905 -0.000179 0.000030 0.000334 -0.002323 -106.379684 71.020905
[L_front_hand02_02]
13 71.020927 -0.000119 0.000060 0.000334 -0.002323 -106.379684 71.020927
14 71.020927 -0.000119 0.000060 0.000334 -0.002323 -106.379684 71.020927
[L_front_hand03_02]
13 71.020905 -0.000060 0.000060 0.000334 -0.002323 -106.379684 71.020905
14 71.020905 -0.000060 0.000060 0.000334 -0.002323 -106.379684 71.020905
[R_forearm]
13 322.776428 -0.000060 0.000030 0.204259 0.054422 -105.909248 322.776428
14 322.776428 -0.000060 0.000030 0.204106 0.055002 -106.234558 322.776428
[R_front_hand]
13 238.847015 -0.006795 2.210259 -2.635298 -10.645461 -26.312506 238.857239
14 238.847015 -0.006795 2.210259 -2.635298 -10.645461 -26.312506 238.857239
[R_weapon_bone]
13 155.664093 0.002503 -0.000030 0.003487 0.001180 -90.988930 155.664078
14 155.664093 0.002503 -0.000030 0.003487 0.001180 -90.988930 155.664078
[R_front_hand01_01]
13 87.624611 14.231146 22.918642 -154.633499 -59.950619 61.746044 91.683487
14 87.624611 14.231146 22.918642 -154.633499 -59.950619 61.746044 91.683487
[R_front_hand02_01]
13 89.356956 14.367283 -19.491137 154.602661 58.302849 63.744389 92.579636
14 89.356956 14.367283 -19.491137 154.602661 58.302849 63.744389 92.579636
[R_front_hand03_01]
13 87.286232 -22.307278 -0.143439 0.162155 -0.423168 -75.767921 90.091743
14 87.286232 -22.307278 -0.143439 0.162155 -0.423168 -75.767921 90.091743
[R_front_hand01_02]
13 71.020905 0.000060 0.000119 0.002323 -0.000334 106.381714 71.020905
14 71.020905 0.000060 0.000119 0.002323 -0.000334 106.381714 71.020905
[R_front_hand02_02]
13 71.020844 -0.000030 -0.000119 0.002323 -0.000334 106.381714 71.020836
14 71.020844 -0.000030 -0.000119 0.002323 -0.000334 106.381714 71.020836
[R_front_hand03_02]
13 71.020905 0.000000 0.000030 0.002323 -0.000334 106.381714 71.020905
14 71.020905 0.000000 0.000030 0.002323 -0.000334 106.381714 71.020905
[null_rope01_connect]
13 328.732483 0.000000 -0.000238 -134.606506 -41.035152 -169.223083 328.732483
14 328.732483 0.000000 -0.000238 -131.870331 -49.290859 -174.814499 328.732483
[Rope1_Seg01]
13 -0.000031 -0.000207 0.000000 1.970785 9.133493 -157.112625 0.000209
14 -0.000032 -0.000221 0.000000 11.305821 13.866103 -149.380981 0.000223
[Rope1_Seg02]
13 139.999863 -0.000179 0.000000 8.729709 -1.577496 13.430269 139.999863
14 139.999863 -0.000179 0.000000 6.433591 -3.343837 12.062447 139.999863
[Rope1_Seg03]
13 139.999924 0.000060 -0.000060 18.449881 3.338992 13.857346 139.999924
14 139.999924 0.000060 -0.000060 14.305426 -0.531057 12.546417 139.999924
[Rope1_Seg04]
13 139.999924 -0.000060 -0.000119 24.800802 2.666351 14.766036 139.999924
14 139.999924 -0.000060 -0.000119 22.519033 0.588742 12.315260 139.999924
[Rope1_Seg05]
13 139.999832 0.000119 -0.000060 14.470608 -1.230037 9.013946 139.999832
14 139.999832 0.000119 -0.000060 8.955353 -1.752583 5.840652 139.999832
[Rope1_Seg06]
13 139.999954 0.000119 -0.000060 8.600491 0.775761 3.165190 139.999954
14 139.999954 0.000119 -0.000060 5.368485 -0.352906 2.386598 139.999954
[Rope1_Seg07]
13 139.999985 0.000060 0.000000 5.694576 0.878111 1.595342 139.999985
14 139.999985 0.000060 0.000000 4.833436 0.244635 1.398049 139.999985
[Rope1_Seg09]
13 121.602913 0.000119 -0.000089 -89.793175 -1.359789 0.847147 121.602913
14 121.602913 0.000119 -0.000089 -89.793175 -1.359789 0.847147 121.602913
[L_mid_hand01]
13 103.859421 1.038730 8.195221 130.544373 -67.584534 -38.866943 104.187431
14 103.859421 1.038730 8.195221 130.544373 -67.584534 -38.866943 104.187431
[L_mid_hand02]
13 105.572853 -4.139662 -10.864139 -168.923172 43.409309 -73.498886 106.211075
14 105.572853 -4.139662 -10.864139 -168.923172 43.409309 -73.498886 106.211075
[L_mid_hand03]
13 104.641464 17.579376 -3.913581 -6.012627 17.808174 74.893669 106.179977
14 104.641464 17.579376 -3.913581 -6.012627 17.808174 74.893669 106.179977
[null_rope02_connect]
13 328.732849 0.000179 -0.000119 -53.023270 74.614220 72.518723 328.732849
14 328.732849 0.000179 -0.000119 -96.860512 68.201256 25.033653 328.732849
[Rope2_Seg01]
13 0.000000 -0.000122 -0.000028 41.637684 8.761368 -33.779953 0.000126
14 0.000000 -0.000149 -0.000024 31.681686 2.644361 -39.670502 0.000151
[Rope2_Seg02]
13 139.999741 -0.000060 -0.000119 -7.676724 -2.653940 -3.360908 139.999756
14 139.999741 -0.000060 -0.000119 -5.789524 -0.701826 -2.255825 139.999756
[Rope2_Seg03]
13 140.000107 0.000030 0.000000 -8.777007 -2.405567 -4.071475 140.000107
14 140.000107 0.000030 0.000000 -5.180801 -0.438269 -2.171841 140.000107
[Rope2_Seg04]
13 139.999802 0.000000 -0.000060 -8.991241 -2.773858 -3.919717 139.999802
14 139.999802 0.000000 -0.000060 -0.774552 -2.293473 0.719613 139.999802
[Rope2_Seg05]
13 139.999985 -0.000060 0.000119 -9.833789 -3.755702 -3.604465 139.999985
14 139.999985 -0.000060 0.000119 -3.507630 -0.952712 -0.948916 139.999985
[Rope2_Seg06]
13 139.999893 -0.000030 -0.000119 -9.055950 3.693666 -7.627386 139.999893
14 139.999893 -0.000030 -0.000119 -10.276975 5.281090 -8.009875 139.999893
[Rope2_Seg07]
13 139.999893 0.000060 -0.000060 -3.822755 10.324848 -7.826848 139.999893
14 139.999893 0.000060 -0.000060 -6.126596 9.341262 -8.929762 139.999893
[Rope2_Seg09]
13 121.338966 0.000089 -0.000060 33.793236 -1.359788 -0.847141 121.338966
14 121.338966 0.000089 -0.000060 33.793236 -1.359788 -0.847141 121.338966
[R_mid_hand01]
13 104.680779 11.144459 -10.335981 -16.212063 45.237247 70.462852 105.778534
14 104.680779 11.144459 -10.335981 -16.212063 45.237247 70.462852 105.778534
[R_mid_hand02]
13 104.070427 2.443552 8.231699 49.067368 -67.749771 39.286453 104.424065
14 104.070427 2.443552 8.231699 49.067368 -67.749771 39.286453 104.424065
[R_mid_hand03]
13 106.028137 -11.221827 -5.996406 -177.101105 15.551026 -76.585571 106.788818
14 106.028137 -11.221827 -5.996406 -177.101105 15.551026 -76.585571 106.788818
[spine02]
13 129.756927 0.001550 0.000119 0.140018 -4.057634 -9.817374 129.756927
14 129.756927 0.001550 0.000119 0.173608 -4.055454 -10.301923 129.756927
[spine03]
13 78.614143 0.081407 -4.899097 1.766405 3.895796 14.551804 78.766693
14 78.614151 0.081443 -4.899103 1.785661 3.886798 14.841824 78.766693
[pelvis]
13 169.435242 0.051022 0.000000 -0.049389 -0.182613 10.198379 169.435257
14 169.435242 0.051022 0.000000 -0.050335 -0.182357 10.792024 169.435257
[null_rope03_connect]
13 -1.257226 -2.466202 137.391083 -158.602936 -82.170906 -123.639046 137.418976
14 -1.257226 -2.466202 137.391083 -153.754257 -88.489227 -126.979668 137.418976
[null_rope04_connect]
13 -1.259640 -2.480268 -137.844437 -158.602936 -82.170906 -123.639046 137.872513
14 -1.259640 -2.480268 -137.844437 -153.754257 -88.489227 -126.979668 137.872513
[Rope3_Seg01]
13 0.000000 0.000000 0.000000 15.713410 -27.873749 -70.836555 0.000000
14 0.000000 0.000000 0.000000 14.744408 -24.058601 -68.641869 0.000000
[Rope3_Seg02]
13 139.999924 -0.000119 0.000060 1.576977 15.653666 4.732992 139.999924
14 139.999924 -0.000119 0.000060 1.817435 13.438641 5.631639 139.999924
[Rope3_Seg03]
13 139.999924 -0.000119 0.000119 3.980793 15.258938 6.084305 139.999924
14 139.999924 -0.000119 0.000119 3.672468 13.337858 4.876184 139.999924
[Rope3_Seg04]
13 139.999924 0.000119 0.000000 3.793480 9.730170 3.006704 139.999924
14 139.999924 0.000119 0.000000 4.444104 10.768784 3.150257 139.999924
[Rope3_Seg05]
13 139.999924 -0.000238 0.000060 -0.298324 -5.547432 -5.878753 139.999924
14 139.999924 -0.000238 0.000060 -2.364245 -5.107657 -0.125598 139.999924
[Rope3_Seg06]
13 139.999893 -0.000119 -0.000060 0.057532 -11.440578 -9.348897 139.999893
14 139.999893 -0.000119 -0.000060 -3.631546 -12.111990 -1.767620 139.999893
[Rope3_Seg07]
13 139.999771 0.000060 -0.000119 0.568872 -5.005015 -4.925642 139.999771
14 139.999771 0.000060 -0.000119 -0.855805 -5.667017 -1.085026 139.999771
[Rope3_Seg08]
13 139.999985 -0.000060 0.000000 0.617906 -3.173080 -3.127902 139.999985
14 139.999985 -0.000060 0.000000 -0.090188 -3.144728 -0.619261 139.999985
[Rope3_Seg09]
13 90.185997 -0.000179 -0.000060 89.793228 -1.359877 -0.847183 90.185997
14 90.185997 -0.000179 -0.000060 89.793228 -1.359877 -0.847183 90.185997
[R_rear_hand01]
13 103.366196 -6.073594 -10.757982 172.856537 -15.220671 -75.434441 104.101845
14 103.366196 -6.073594 -10.757982 172.856537 -15.220671 -75.434441 104.101845
[R_rear_hand02]
13 100.509819 12.039542 -7.992327 -12.874829 36.868488 72.167213 101.543350
14 100.509819 12.039542 -7.992327 -12.874829 36.868488 72.167213 101.543350
[R_rear_hand03]
13 101.539970 5.215704 5.435467 71.484581 -71.816628 21.513813 101.819031
14 101.539970 5.215704 5.435467 71.484581 -71.816628 21.513813 101.819031
[Rope4_Seg01]
13 -0.000124 -0.000014 -0.000070 -101.440895 -26.651566 -99.517609 0.000144
14 -0.000128 -0.000012 -0.000070 -104.007828 -21.791494 -89.338974 0.000147
[Rope4_Seg02]
13 139.999985 0.000060 0.000119 2.010204 -11.261412 7.503472 139.999985
14 139.999985 0.000060 0.000119 4.096832 -12.923780 6.903638 139.999985
[Rope4_Seg03]
13 139.999924 0.000000 -0.000238 3.073092 -10.304753 5.862344 139.999924
14 139.999924 0.000000 -0.000238 6.360621 -10.955677 8.806250 139.999924
[Rope4_Seg04]
13 139.999985 0.000000 0.000119 1.496808 0.433496 4.068947 139.999985
14 139.999985 0.000000 0.000119 1.563527 -3.685338 0.827284 139.999985
[Rope4_Seg05]
13 139.999802 -0.000060 -0.000119 0.215534 2.669925 1.535334 139.999802
14 139.999802 -0.000060 -0.000119 -3.598525 0.993168 -5.172560 139.999802
[Rope4_Seg06]
13 139.999924 0.000000 0.000060 0.333440 0.597125 1.027175 139.999924
14 139.999924 0.000000 0.000060 -1.152258 0.086894 -1.854024 139.999924
[Rope4_Seg07]
13 139.999802 0.000000 0.000000 0.281195 0.415365 0.709916 139.999802
14 139.999802 0.000000 0.000000 -0.546672 -0.072574 -1.046509 139.999802
[Rope4_Seg08]
13 139.999924 0.000000 0.000119 -1.362372 0.264131 0.443659 139.999924
14 139.999924 0.000000 0.000119 -1.892427 -0.039013 -0.665455 139.999924
[Rope4_Seg09]
13 90.185791 0.000060 0.000060 -135.617828 2.228885 0.850567 90.185791
14 90.185791 0.000060 0.000060 -135.617828 2.228885 0.850567 90.185791
[L_rear_hand01]
13 101.696655 -8.392275 -7.654577 -12.874829 -36.868488 107.832764 102.329041
14 101.696655 -8.392275 -7.654577 -12.874829 -36.868488 107.832764 102.329041
[L_rear_hand02]
13 102.726799 -1.568258 5.773216 71.484581 71.816628 158.486160 102.900848
14 102.726799 -1.568258 5.773216 71.484581 71.816628 158.486160 102.900848
[L_rear_hand03]
13 104.552910 9.721220 -10.420293 -177.714203 -24.565960 -106.089035 105.519653
14 104.552910 9.721220 -10.420293 -177.714203 -24.565960 -106.089035 105.519653
